<svg width="12" height="11" viewBox="0 0 12 11" fill="none" xmlns="http://www.w3.org/2000/svg">
<path d="M5.59178 0.453303C5.88525 -0.141231 6.73305 -0.14123 7.02651 0.453304L8.07272 2.5728C8.18915 2.80868 8.4141 2.97224 8.67438 3.01029L11.0153 3.35244C11.6712 3.44832 11.9326 4.25459 11.4578 4.71712L9.76515 6.36571C9.57645 6.5495 9.49032 6.81441 9.53485 7.07403L9.93414 9.4021C10.0462 10.0557 9.3602 10.554 8.7733 10.2454L6.68151 9.14535C6.4484 9.02276 6.16989 9.02276 5.93679 9.14535L3.845 10.2454C3.2581 10.554 2.57206 10.0557 2.68415 9.4021L3.08344 7.07403C3.12797 6.81441 3.04184 6.5495 2.85314 6.36571L1.16054 4.71712C0.685669 4.25459 0.947095 3.44832 1.60303 3.35244L3.94391 3.01029C4.2042 2.97224 4.42915 2.80868 4.54558 2.5728L5.59178 0.453303Z" fill="#F9CA24"/>
</svg>
