<svg width="12" height="12" viewBox="0 0 12 12" fill="none" xmlns="http://www.w3.org/2000/svg">
<path d="M11.0526 7.90106C10.3215 7.90248 9.59484 7.7869 8.90021 7.55873C8.57544 7.44517 8.21446 7.52161 7.96359 7.75706L6.60065 8.78528C5.13693 8.05039 3.94929 6.86298 3.21413 5.39938L4.21517 4.06928C4.46791 3.81636 4.5583 3.44354 4.4495 3.10296C4.22047 2.40738 4.10427 1.67966 4.10528 0.947369C4.10528 0.424155 3.68112 0 3.15791 0H0.947369C0.424155 0 0 0.424155 0 0.947369C0.00695724 7.04869 4.95131 11.993 11.0526 12C11.5758 12 12 11.5758 12 11.0526V8.84843C12 8.32521 11.5758 7.90106 11.0526 7.90106Z" fill="#009688"/>
<path d="M11.6842 5.05265C11.5098 5.05265 11.3684 4.91125 11.3684 4.73685C11.3656 2.47071 9.52927 0.634352 7.26313 0.63157C7.08872 0.63157 6.94733 0.490175 6.94733 0.31577C6.94733 0.141365 7.08872 0 7.26313 0C9.87808 0.0027829 11.9972 2.1219 12 4.73685C12 4.91125 11.8586 5.05265 11.6842 5.05265Z" fill="#455A64"/>
<path d="M9.15785 5.05265C8.98345 5.05265 8.84205 4.91125 8.84205 4.73685C8.84205 3.86482 8.13514 3.15791 7.26312 3.15791C7.08872 3.15791 6.94733 3.01651 6.94733 2.84211C6.94733 2.6677 7.08872 2.52631 7.26312 2.52631C8.48398 2.52631 9.47365 3.51601 9.47365 4.73685C9.47365 4.91125 9.33225 5.05265 9.15785 5.05265Z" fill="#455A64"/>
</svg>
